PathFileType	4	(X/Y/Z)	CPRIT_Patient3_L_HipIso_Processed.TRC
DataRate	CameraRate	NumFrames	NumMarkers	Units	OrigDataRate	OrigDataStartFrame	OrigNumFrames
150.114591291062	150.114591291062	6	39	m	150.114591291062	492	       1311
Frame#	Time	R.Heel			R.Midfoot.Superior			R.Midfoot.Lateral			R.Toe			L.Heel			L.Midfoot.Superior			L.Midfoot.Lateral			L.Toe			R.Shank.Superior			R.Shank.Inferior			R.Shank.Lateral			R.Shank.Posterior			L.Shank.Superior			L.Shank.Inferior			L.Shank.Posterior			L.Shank.Lateral			R.Patella			L.Patella			R.Thigh.Superior			R.Thigh.Lateral			R.Thigh.Inferior			L.Thigh.Superior			L.Thigh.Inferior			L.Thigh.Lateral			L.Asis			R.Asis			Sacral			R.Shoulder			L.Shoulder			C7			J.Notch			Sternum			Thoracic			L.Elbow			L.Wrist			R.Elbow			R.Wrist			R.PSIS			L.PSIS			
		X1	Y1	Z1	X2	Y2	Z2	X3	Y3	Z3	X4	Y4	Z4	X5	Y5	Z5	X6	Y6	Z6	X7	Y7	Z7	X8	Y8	Z8	X9	Y9	Z9	X10	Y10	Z10	X11	Y11	Z11	X12	Y12	Z12	X13	Y13	Z13	X14	Y14	Z14	X15	Y15	Z15	X16	Y16	Z16	X17	Y17	Z17	X18	Y18	Z18	X19	Y19	Z19	X20	Y20	Z20	X21	Y21	Z21	X22	Y22	Z22	X23	Y23	Z23	X24	Y24	Z24	X25	Y25	Z25	X26	Y26	Z26	X27	Y27	Z27	X28	Y28	Z28	X29	Y29	Z29	X30	Y30	Z30	X31	Y31	Z31	X32	Y32	Z32	X33	Y33	Z33	X34	Y34	Z34	X35	Y35	Z35	X36	Y36	Z36	X37	Y37	Z37	X38	Y38	Z38	X39	Y39	Z39	

492	3.270834605598	0.872764679277	0.049165260172	0.147543830056	1.041534141482	0.099004435411	0.132926872640	0.958128142554	0.037530071276	0.190494841200	1.158628372146	0.056710995840	0.120394964370	0.751840433122	0.095982101844	-0.228921239399	0.890370443965	0.162743844502	-0.321582235610	0.788544196717	0.100754817142	-0.319521788143	0.985048875402	0.131182458725	-0.393916007194	1.002446685734	0.362343835015	0.159824548661	0.994674249951	0.241200171312	0.158415955374	0.940436902406	0.295069576699	0.229432161077	0.866081268722	0.356737626204	0.188191973612	0.892537231869	0.425425765212	-0.244317945495	0.866658229243	0.299883297717	-0.261765627466	0.766545906489	0.402952171975	-0.178729505341	0.795892589143	0.358221039046	-0.271198449161	1.019457465402	0.476099188640	0.132393206701	0.935145274493	0.535843633279	-0.214620035927	1.076982511355	0.773119309240	0.115509413925	1.015428654808	0.714448744775	0.202297661048	1.049338063631	0.619464673389	0.102533867106	0.964118957680	0.832307603074	-0.151250742512	0.959757776926	0.678775205720	-0.182374916037	0.856662944086	0.775319065319	-0.181786759906	0.963836662905	0.968191244321	-0.102304383443	1.075904542291	0.922185359563	0.105492762013	0.875266001111	1.021682531417	0.096993203120	1.069185084913	1.453888516024	0.189261353616	0.976365792287	1.432812185677	-0.123676006627	0.985072217989	1.488709427849	0.053132328541	1.090365815783	1.377643445116	0.012773697949	1.121309941895	1.190826306412	-0.007541249136	0.893149098702	1.342327579121	0.092222933111	0.882729974423	1.168428800264	-0.277079319676	0.960870467904	0.988386990969	-0.436086608279	0.971004337416	1.214279232317	0.407776212313	1.088742011939	0.989118288418	0.421339176071	0.894971435694	1.017728539124	0.126030406145	0.855652317741	1.025457725271	0.057838211039	
493	3.277496183206	0.872764031031	0.049162916025	0.147541984660	1.041530272017	0.099004744498	0.132912721774	0.958127543782	0.037530739894	0.190493059181	1.158622539999	0.056709596415	0.120384888277	0.745876166587	0.100190046483	-0.240171028401	0.883824190933	0.167869679302	-0.332991701914	0.781694527009	0.106359313571	-0.331033572239	0.977635113927	0.137134987482	-0.406783981758	1.002376422639	0.362340761946	0.159804123001	0.994641819293	0.241190756617	0.158381994811	0.940407185468	0.295053383318	0.229425199716	0.866026673882	0.356711546077	0.188213952545	0.887828289883	0.429148339542	-0.251371274116	0.861250003162	0.304088021424	-0.270704986101	0.762325011367	0.406144711610	-0.185081168561	0.790631448615	0.362832136567	-0.278539604308	1.019362823742	0.476056219700	0.132345747065	0.931413795963	0.538898787972	-0.219825560718	1.076937255658	0.773044606814	0.115515773872	1.015436485368	0.714378961915	0.202416972351	1.049230911616	0.619420717126	0.102560076934	0.962715947920	0.833846152955	-0.152457223885	0.956965847163	0.680996312499	-0.186008895084	0.854545261598	0.778131120537	-0.183122351976	0.963594328485	0.968808391212	-0.102091803722	1.076007782927	0.922074194647	0.105620007038	0.875480898315	1.021816142140	0.097532644523	1.069621279385	1.453994750779	0.189701527254	0.976871355585	1.432616912660	-0.123302248859	0.985476139254	1.488790366650	0.053525539943	1.090763417727	1.377679514337	0.013251705760	1.121565930165	1.190818796223	-0.006997677396	0.893512025724	1.342498920277	0.092726921870	0.883118657377	1.168373818956	-0.276772492438	0.960863817708	0.988395284070	-0.436042892895	0.971161623967	1.214351763901	0.408129741449	1.088735854679	0.989113896532	0.421361346846	0.895181332393	1.017786983259	0.126548430122	0.855827835692	1.025708738818	0.058403375308	
494	3.284157760814	0.872763618783	0.049160726050	0.147539842883	1.041526575512	0.099005093433	0.132897264231	0.958127059637	0.037531950254	0.190490735035	1.158617273667	0.056707542088	0.120374058786	0.739877837828	0.104693089263	-0.251625605978	0.877246757024	0.173337656197	-0.344555409931	0.774816155575	0.112306918026	-0.342719252831	0.970183359431	0.143490572331	-0.419802999714	1.002307351382	0.362336333665	0.159778737516	0.994612149849	0.241181443502	0.158343144144	0.940375935656	0.295037416546	0.229411460206	0.865973557262	0.356686170534	0.188225955820	0.883104384723	0.433099829721	-0.258516418323	0.855818065694	0.308563142910	-0.279771726974	0.758089287068	0.409526535648	-0.191548574070	0.785363885753	0.367689120592	-0.285981568702	1.019273994576	0.476014765909	0.132292535399	0.927674379180	0.542144112055	-0.225087027502	1.076896707584	0.772969081049	0.115532040087	1.015441107455	0.714305453397	0.202546095197	1.049126996916	0.619376777674	0.102594063799	0.961318641245	0.835463393407	-0.153685289242	0.954165529114	0.683354404116	-0.189682057692	0.852436638127	0.781038229733	-0.184456881092	0.963361225526	0.969455728858	-0.101874432936	1.076111715388	0.921967904732	0.105755320338	0.875695676224	1.021954462977	0.098078114494	1.070067397916	1.454105853372	0.190141016992	0.977363762497	1.432424963912	-0.122929985112	0.985883584720	1.488875613141	0.053918172557	1.091162408995	1.377718154237	0.013729303466	1.121824053152	1.190814762428	-0.006449029892	0.893879382458	1.342675516281	0.093241069914	0.883500235538	1.168311966097	-0.276464156625	0.960857781714	0.988403913902	-0.436000037343	0.971336996837	1.214431197970	0.408489362301	1.088731794155	0.989109379471	0.421384653776	0.895391459588	1.017847065439	0.127070745499	0.856006576058	1.025966259906	0.058974328997	
495	3.290819338422	0.872763410359	0.049158709880	0.147537378983	1.041523084181	0.099005479820	0.132880532775	0.958126690829	0.037533699662	0.190487866206	1.158612594729	0.056704892069	0.120362570503	0.733850105602	0.109496316286	-0.263260920328	0.870647070179	0.179148069246	-0.356245931535	0.767917494186	0.118598745987	-0.354552142940	0.962705470694	0.150247180279	-0.432939311398	1.002239878561	0.362330605249	0.159747858106	0.994585317743	0.241172381940	0.158299262155	0.940343388868	0.295021998312	0.229390420112	0.865922245832	0.356661762930	0.188227270227	0.878373270889	0.437279682960	-0.265737500496	0.850369969456	0.313309259580	-0.288945157526	0.753844127841	0.413100346581	-0.198118912270	0.780098229778	0.372791700091	-0.293507828933	1.019191555282	0.475975193250	0.132233107543	0.923931780528	0.545578968204	-0.230395388220	1.076860708608	0.772893364973	0.115556995444	1.015442184220	0.714228725529	0.202683049785	1.049026953376	0.619333253892	0.102634701082	0.959930204132	0.837158292958	-0.154931523004	0.951362698817	0.685849014822	-0.193385778448	0.850342165191	0.784037693655	-0.185787488642	0.963137715170	0.970133326931	-0.101653178168	1.076215846988	0.921866736114	0.105897248613	0.875909767776	1.022097554547	0.098627632722	1.070522948682	1.454221285336	0.190579626513	0.977842410953	1.432237071667	-0.122559623032	0.986294105770	1.488965051326	0.054310051407	1.091562333571	1.377759384084	0.014205876016	1.122083821580	1.190814387160	-0.005896608275	0.894250768737	1.342857202510	0.093764756718	0.883875103952	1.168243804898	-0.276154951706	0.960852552496	0.988412896729	-0.435958190834	0.971530298426	1.214517309364	0.408854947203	1.088729917464	0.989104684027	0.421409165689	0.895601198639	1.017908903505	0.127595384665	0.856188099344	1.026230249879	0.059549064272	
496	3.297480916031	0.872763375387	0.049156883333	0.147534568295	1.041519825667	0.099005909647	0.132862566634	0.958126435850	0.037535982961	0.190484449649	1.158608520564	0.056701708969	0.120350515923	0.727797815916	0.114603438451	-0.275052140284	0.864034196008	0.185299510009	-0.368035498296	0.761007049748	0.125234286747	-0.366505025085	0.955213449275	0.157400679681	-0.446159006412	1.002174310311	0.362323647499	0.159710929251	0.994561314276	0.241163717521	0.158250201692	0.940309708365	0.295007458329	0.229361530136	0.865872963514	0.356638565969	0.188217162808	0.873642832508	0.441686284450	-0.273018422084	0.844913436397	0.318325664070	-0.298204245150	0.749595033209	0.416868069231	-0.204779020432	0.774842792942	0.378138507512	-0.301101685148	1.019115910466	0.475937822255	0.132166943238	0.920190700923	0.549201828545	-0.235741835751	1.076828892873	0.772818031825	0.115589376122	1.015439304306	0.714149233018	0.202825813461	1.048931244691	0.619290520144	0.102680732431	0.958553586419	0.838929430329	-0.156192342095	0.948563233587	0.688479024941	-0.197111393290	0.848266678880	0.787126420862	-0.187111490680	0.962924003538	0.970841116963	-0.101428978590	1.076319631577	0.921770863230	0.106044210222	0.876122596102	1.022245481699	0.099179245224	1.070987485014	1.454340460409	0.191017168263	0.978306898865	1.432053883756	-0.122191502823	0.986707327154	1.489058541100	0.054701035733	1.091962794397	1.377803184369	0.014680825508	1.122344727340	1.190817791636	-0.005341738692	0.894625823047	1.343043814881	0.094297347343	0.884243779267	1.168169959395	-0.275845486494	0.960848316277	0.988422246898	-0.435917483711	0.971741327986	1.214609846554	0.409226369119	1.088730310326	0.989099755584	0.421434945633	0.895809923370	1.017972628774	0.128120407134	0.856371916363	1.026500681881	0.060125615229	
497	3.304142493639	0.872763485285	0.049155258468	0.147531387244	1.041516822645	0.099006397328	0.132843411709	0.958126290942	0.037538792767	0.190480481912	1.158605063445	0.056698057229	0.120337983871	0.721726036902	0.120016677035	-0.286973787332	0.857417320018	0.191788822604	-0.379896171262	0.754093431895	0.132211325745	-0.378550303984	0.947719393171	0.164944821184	-0.459428248091	1.002110847740	0.362315547427	0.159667379999	0.994540043873	0.241155589676	0.158195811681	0.940274977684	0.294994130157	0.229324221101	0.865825825195	0.356616799597	0.188194886174	0.868921047049	0.446316931202	-0.280342950560	0.839456333626	0.323610297065	-0.307527743370	0.745347598116	0.420830776918	-0.211515440447	0.769605837675	0.383727051302	-0.308746338260	1.019047284029	0.475902925964	0.132093472565	0.916455764072	0.553010253467	-0.241117843743	1.076800682830	0.772743586469	0.115627879774	1.015431980793	0.714067375594	0.202972335500	1.048840152893	0.619248923383	0.102730776748	0.957191505421	0.840775008992	-0.157464036526	0.945772976550	0.691242642212	-0.200850242748	0.846214723730	0.790300935774	-0.188426379158	0.962720143116	0.971578890209	-0.101202799449	1.076422470924	0.921680387397	0.106194507229	0.876333578683	1.022398313636	0.099731040209	1.071460612625	1.454462750094	0.191453457473	0.978757027938	1.431875957756	-0.121825891153	0.987122949189	1.489155919952	0.055091019117	1.092363453792	1.377849499098	0.015153572360	1.122606248184	1.190825037733	-0.004785763253	0.895004226817	1.343235190806	0.094838198740	0.884606888344	1.168091103914	-0.275536334368	0.960845250492	0.988431977138	-0.435878026618	0.971969851281	1.214708536981	0.409603501713	1.088733057107	0.989094539401	0.421462049305	0.896017005053	1.018038383239	0.128643913350	0.856557491646	1.026777544047	0.060702073720	
